<?xml version="1.0" standalone="no"?> <!DOCTYPE svg PUBLIC "-//W3C//DTD SVG 1.0//EN" "http://www.w3.org/TR/2001/REC-SVG-20010904/DTD/svg10.dtd" > <svg xmlns="http://www.w3.org/2000/svg" width="100%" height="100%">
<defs >
<font id="mathleteskinny" horiz-adv-x="575" ><font-face
    font-family="Mathlete Skinny"
    units-per-em="2048"
    panose-1="0 0 4 0 0 0 0 0 0 0"
    ascent="2047"
    descent="-409"
    alphabetic="0" />
<missing-glyph horiz-adv-x="745" d="M68 0H610V1364H68V0ZM135 109V1255Q135 1296 176 1296H502Q543 1296 543 1255V109Q543 68 502 68H176Q135 68 135 109Z" />
<glyph unicode=" " glyph-name="space" horiz-adv-x="614" />
<glyph unicode="!" glyph-name="exclam" horiz-adv-x="286" d="M168 317V1171Q168 1184 160 1192T139 1200Q127 1200 119 1192T111 1171V317Q111 305 119 297T139 289Q152 289 160 297T168 317ZM190 90Q190 102 181 110T160 117Q128 116 105 98T76 55Q74 38 85
24T115 10Q149 9 167 28T189 65T190 90Z" />
<glyph unicode="&quot;" glyph-name="quotedbl" horiz-adv-x="417" d="M319 1169Q319 1182 311 1191T291 1200Q278 1198 270 1190T262 1169Q264 1114 264 932Q264 919 272 911T293 903Q305 903 313 911T322 932Q322 1114 319 1169ZM127 926V1040Q127 1116 133
1149Q135 1161 128 1171T109 1182Q96 1184 87 1177T76 1157Q68 1110 68 1042Q68 1006 70 981V926Q70 913 78 905T98 897Q111 897 119 905T127 926Z" />
<glyph unicode="#" glyph-name="numbersign" horiz-adv-x="790" d="M199 756L193 741Q190 734 184 715T170 677T154 637Q137 604 98 604Q27 601 -16 606Q-29 607 -38 600T-47 580Q-49 567 -41 558T-20 549Q28 545 61 545Q110 542 94 498Q60 403 55 348Q53 336
60 326T80 315Q92 313 102 320T113 340Q122 414 170 528Q178 548 211 551Q264 554 334 563Q369 568 375 562T371 518Q344 441 324 356Q322 345 328 334T346 322Q357 320 368 326T381 344Q413 460 440 545Q449 579 485 582Q562 591 610 594Q623 594 631 603T639
625Q637 637 628 644T606 651Q574 648 526 645Q490 642 485 651T492 690L539 817Q539 819 573 819Q591 820 613 820T649 821T670 823Q682 823 690 832T698 854Q696 866 687 874T666 881H614Q580 881 577 886T582 926Q595 976 596 989Q598 1002 591 1012T571 1024Q560
1024 551 1018Q544 1014 541 1007T536 990T532 973Q528 956 510 911Q502 889 497 885Q488 878 463 877Q443 876 406 876T354 874H344Q318 872 310 880T309 920Q312 931 330 979Q335 997 324 1009T296 1019T272 999Q261 967 242 901Q237 884 230 877T218 868T197
866Q106 858 51 840Q34 833 32 817T42 789T72 782Q97 795 160 801Q175 803 183 803T199 798T206 784T199 756ZM459 772L420 662Q415 648 413 644T401 635T373 627Q349 624 311 620T260 614Q235 613 227 626T227 662Q235 682 242 701T255 743T266 776Q271 789 274
796T284 807T291 811T303 812Q308 813 311 813Q328 814 366 815T424 817Q433 817 441 817T454 816T462 810T465 796T459 772Z" />
<glyph unicode="$" glyph-name="dollar" horiz-adv-x="684" d="M473 999Q474 988 485 982T510 977Q520 978 526 989T530 1012Q491 1170 391 1223Q388 1224 378 1228T362 1235Q327 1244 324 1278Q324 1336 319 1401Q319 1413 310 1421T289 1430Q276 1428 269 1419T262
1397Q266 1319 266 1276Q269 1241 233 1229Q217 1224 197 1212Q101 1160 42 1047T-4 811Q2 737 49 696Q83 668 123 660T262 647Q276 647 276 606Q283 100 283 98Q283 58 268 55T233 68Q135 131 117 260Q116 272 106 279T84 285Q72 284 65 274T59 252Q70 159 122
91T252 -6Q284 -19 287 -51L293 -180Q293 -193 302 -201T324 -207Q336 -207 343 -198T350 -176Q349 -158 348 -121T346 -66Q343 -29 385 -23Q472 -10 528 59T588 242Q591 316 581 386T546 518T478 627T373 692H371Q360 694 347 707T334 737Q331 973 328 1133Q328
1148 330 1159T337 1175T346 1178Q358 1174 365 1169Q439 1134 473 999ZM264 707Q200 709 160 715Q111 721 85 744T53 815Q43 922 93 1019T225 1161Q227 1162 230 1164T240 1168T253 1169T264 1157T270 1128Q274 1026 274 748Q274 707 264 707ZM334 592Q334 639
346 639Q348 638 351 637T356 635Q418 616 459 556T517 416T530 246Q526 155 487 103T383 39Q364 35 353 40T342 57Q337 203 334 592Z" />
<glyph unicode="%" glyph-name="percent" horiz-adv-x="671" d="M573 1174Q582 1190 572 1204T547 1218T520 1202Q258 724 6 25Q-1 -4 25 -13T63 4Q304 670 573 1174ZM188 1155Q135 1165 98 1138T47 1061Q34 1018 47 976T98 915Q152 894 191 907T250 963Q266 991
261 1041T233 1120Q199 1152 188 1155ZM121 1079Q138 1097 155 1090T185 1065T201 1032Q209 997 190 972T123 969Q112 974 104 997Q98 1011 101 1037T121 1079ZM414 250Q403 254 365 246Q348 245 325 224T289 184Q238 105 272 56T385 12Q465 21 489 79T453 223Q429
247 414 250ZM362 186L371 188H373Q381 189 393 189T408 186Q447 131 437 104T381 72T323 87T338 152L362 186Z" />
<glyph unicode="&amp;" glyph-name="ampersand" horiz-adv-x="679" d="M350 475L389 479Q419 485 518 485Q584 483 584 455Q584 442 576 434T555 426H545Q504 426 504 420Q519 248 471 156Q440 98 390 54T283 -6Q216 -25 157 -2T57 86Q6 171 2 312T45 541Q68 578
92 604Q116 631 92 657Q89 660 68 692Q31 772 41 877T98 1090Q189 1295 315 1257Q363 1241 399 1192T449 1083Q459 1020 438 975Q430 959 414 959T387 971T385 999Q398 1025 389 1071T354 1155Q297 1235 236 1188Q191 1153 151 1063T100 879Q91 777 121 721Q136
687 166 674Q180 668 215 664H223Q225 663 231 662T240 659Q244 659 246 657Q250 655 256 649Q268 631 256 612Q249 605 240 602H229H209Q182 602 168 592Q122 562 98 512Q57 439 60 314T106 119Q164 24 266 51Q311 64 352 99T418 184Q459 269 446 416L444 420Q444
425 403 422Q349 414 324 408Q295 405 289 428Q282 456 307 465Q338 473 350 475Z" />
<glyph unicode="&apos;" glyph-name="quotesingle" horiz-adv-x="159" d="M57 1186Q58 1198 51 1207T31 1219Q18 1219 9 1211T0 1190Q-3 1140 0 1063Q6 970 6 942Q6 930 14 922T35 913Q47 913 55 921T63 942Q63 950 63 966T61 1013T59 1067Q55 1159 57 1186Z" />
<glyph unicode="(" glyph-name="parenleft" horiz-adv-x="473" d="M358 1145Q376 1152 378 1168T368 1195T338 1198Q166 1128 102 786Q78 654 78 516Q77 447 78 410T89 316T117 217T173 118T264 -2Q277 -17 293 -13T314 6T309 35Q266 84 236 127T187 207T157 282T142
355T137 432T137 516Q137 597 146 681T176 865T245 1041T358 1145Z" />
<glyph unicode=")" glyph-name="parenright" horiz-adv-x="481" d="M258 1010L205 1081Q184 1109 146 1141T70 1186Q53 1194 41 1183T29 1156T49 1133Q82 1119 111 1094Q119 1087 125 1081T137 1069T149 1056T159 1044T171 1030T182 1015T195 997T209 977Q374
745 307 500Q304 487 297 466T287 436Q258 362 225 305L188 236L152 172L106 98L63 29Q53 13 62 -1T86 -15T113 0L156 68L201 139L238 205L279 279L311 344Q345 411 362 483Q439 755 258 1010Z" />
<glyph unicode="*" glyph-name="asterisk" horiz-adv-x="587" d="M217 803L252 870Q264 894 271 901T286 902T307 870Q312 861 348 807Q359 791 376 793T399 809T397 840Q384 861 366 890T342 928Q319 970 397 1001Q467 1032 473 1034Q490 1039 492 1055T483 1082T453
1087Q396 1069 371 1055Q337 1039 330 1045T324 1090Q327 1129 336 1161Q340 1172 335 1182T317 1198Q305 1202 295 1196T279 1178Q265 1140 262 1077Q260 1046 255 1043T219 1047Q202 1051 165 1063T109 1079Q97 1081 86 1075T74 1059Q72 1046 78 1035T96 1022Q161
1007 201 991Q230 980 233 972T221 936L201 899L164 831Q155 815 165 801T191 787T217 803Z" />
<glyph unicode="+" glyph-name="plus" horiz-adv-x="610" d="M14 643Q2 642 -4 632T-8 608Q-7 596 3 590T27 586Q109 602 213 602Q241 602 248 596T256 561Q265 375 268 342Q268 330 278 322T301 315Q311 315 319 325T326 346Q323 374 321 444T313 557Q310 589
315 594T354 600Q394 600 438 598T485 596Q498 596 506 604T514 625Q514 637 506 645T485 653Q428 653 352 657Q325 659 318 665T311 700Q311 769 303 909Q303 922 294 930T272 938Q260 936 253 927T246 905Q252 800 252 702Q252 673 243 666T195 659Q79 659 14
643Z" />
<glyph unicode="," glyph-name="comma" horiz-adv-x="237" d="M76 86Q61 97 46 89T30 66T43 37Q82 9 82 -39T51 -174Q44 -203 71 -212T109 -195Q126 -144 134 -109T142 -35T126 32T76 86Z" />
<glyph unicode="-" glyph-name="hyphen" horiz-adv-x="667" d="M31 571Q18 570 11 561T6 539Q7 527 17 520T39 514Q151 530 383 524Q527 520 543 520Q555 520 563 528T571 549Q571 561 563 569T543 578Q535 578 387 582Q150 592 31 571Z" />
<glyph unicode="." glyph-name="period" horiz-adv-x="262" d="M164 80Q164 81 159 97T147 122T125 131Q81 135 54 118T27 74T43 18Q63 -8 89 -14T138 -2T166 61Q168 71 164 80Z" />
<glyph unicode="/" glyph-name="slash" d="M53 289L16 193Q-23 85 -31 -6Q-32 -19 -24 -28T-4 -37Q8 -39 17 -31T27 -10Q35 76 70 172L109 266Q135 329 143 356Q355 912 477 1180Q485 1196 475 1209T449 1221T424 1204Q276 878 90 377L53 289Z" />
<glyph unicode="0" glyph-name="zero" horiz-adv-x="565" d="M453 979Q447 1087 403 1178Q377 1235 340 1265T255 1291T156 1243Q-19 1094 -43 719Q-49 653 -33 500Q-15 333 24 197T127 2Q174 -39 225 -39Q255 -38 283 -27T341 10T394 82T434 193Q469 338 469
639Q469 741 467 805Q466 846 453 979ZM406 831Q412 590 408 457Q390 122 303 55Q257 20 225 20Q196 20 168 45Q111 99 72 244Q42 355 26 499T14 715Q40 1067 193 1198Q247 1240 283 1228T350 1153Q375 1102 390 987T406 831Z" />
<glyph unicode="1" glyph-name="one" horiz-adv-x="483" d="M195 1200Q195 1208 193 1210Q188 1241 160 1241Q149 1241 139 1231Q62 1160 10 1077Q-6 1052 18 1036T59 1044Q72 1066 88 1085Q107 1109 117 1116T134 1112T141 1067Q147 935 150 899Q162 715 156
604Q137 278 137 49Q137 46 137 42T126 31T96 23H-2Q-14 23 -22 15T-31 -6Q-31 -19 -23 -27T-2 -35Q98 -35 178 -33T358 -31Q371 -31 379 -23T387 -2T379 18T358 27H238Q193 24 193 35Q197 310 213 600Q219 705 209 903Q195 1110 195 1200Z" />
<glyph unicode="2" glyph-name="two" horiz-adv-x="565" d="M274 498L346 623Q479 876 438 1038Q414 1142 339 1196T176 1233Q86 1212 41 1123T14 899Q15 887 25 880T47 874T66 885T72 907Q54 1020 88 1090T188 1176Q251 1189 306 1149T381 1026Q415 882 293 651L225
528Q133 373 92 270Q92 265 39 141L6 63L-4 37Q-8 29 -8 29V16Q-8 -4 10 -12L18 -14Q27 -15 38 -16T57 -18H80Q154 -18 211 -16Q238 -15 304 -12T391 -8H440Q453 -8 461 0T469 20Q469 33 461 41T440 49H391Q369 47 301 47Q285 46 254 45T209 43Q154 41 80 41H70L61
43L92 119Q142 240 150 250Q165 302 197 360L274 498Z" />
<glyph unicode="3" glyph-name="three" horiz-adv-x="512" d="M154 715L143 713Q140 712 129 711T110 706T92 696Q68 679 70 656T98 627Q119 625 154 629Q166 627 227 598Q280 574 313 523T354 403Q372 243 323 143T186 23Q108 3 45 59T-25 227Q-25 239 -34 247T-55
256Q-68 254 -75 245T-82 223Q-76 86 8 13T201 -35Q311 -9 372 111T412 412Q404 492 362 555T252 651Q250 652 247 653T237 658T229 667T233 681T258 700Q356 758 389 860T379 1067Q347 1145 301 1187T205 1231T106 1200Q42 1151 7 1060T-14 870Q-13 858 -4 851T18
846Q31 847 38 856T43 879Q33 961 61 1038T141 1151Q172 1171 203 1171T266 1139T324 1044Q363 948 319 856T172 719Q172 718 154 715Z" />
<glyph unicode="4" glyph-name="four" horiz-adv-x="563" d="M440 686L426 688Q409 689 403 691T391 702T387 731Q390 809 397 893Q400 960 403 1004Q410 1126 395 1212Q392 1226 385 1233Q381 1237 367 1237Q355 1237 334 1223Q328 1220 326 1214L100 883L-8
723L-41 668Q-44 663 -49 649L-53 641Q-56 616 -37 604Q-25 600 -23 602H-16Q2 604 16 608Q23 608 35 612Q107 627 125 629Q197 636 279 633Q293 633 298 633T310 629T318 616T319 590Q314 477 307 344T297 134T293 14Q293 2 301 -6T322 -14Q334 -14 342 -6T350
14Q350 149 379 590Q380 606 382 612T393 624T422 629H436Q449 628 458 635T469 655Q469 668 461 677T440 686ZM344 1047V1024Q344 995 338 911Q332 829 332 797Q331 786 330 765T328 733Q327 705 318 699T285 692Q214 694 117 686Q115 686 109 685T100 684Q56
680 52 691T66 723Q69 727 70 729L43 690L150 850L295 1061Q344 1134 344 1047Z" />
<glyph unicode="5" glyph-name="five" horiz-adv-x="595" d="M86 745V772Q86 775 85 824T84 903Q78 1033 96 1102Q99 1123 106 1135L111 1141Q150 1153 264 1141Q373 1124 436 1120Q449 1119 458 1126T469 1147Q469 1159 461 1168T440 1178Q438 1178 411 1181T360
1188T270 1198Q146 1213 94 1198Q53 1186 39 1116Q28 1074 25 991V901Q25 852 27 825Q29 797 29 772Q29 764 27 750Q23 683 25 649Q34 615 57 618H61Q63 618 90 623L145 635Q159 638 207 645L217 647Q237 652 264 649Q318 638 358 596T417 496T442 368T432 231Q415
138 352 77T213 10Q140 4 92 61T43 231Q43 244 35 252T14 260Q2 260 -6 252T-14 231Q-14 93 51 18T219 -49Q313 -41 390 34T489 219Q499 283 500 348T483 477T435 591T356 674T244 709Q230 711 135 692L127 690Q105 687 96 688T84 698Q84 708 85 722T86 745Z" />
<glyph unicode="6" glyph-name="six" horiz-adv-x="569" d="M397 1022V973V963Q397 942 410 932Q416 926 430 926Q442 926 450 935T457 956V1024Q454 1075 442 1100Q407 1189 355 1222T238 1231Q138 1197 57 1059Q14 990 -6 831T-16 502Q-5 301 44 168T184 4Q263
-21 324 10T424 121Q490 261 469 442Q461 533 431 597T348 680Q227 730 78 498Q78 498 59 469Q44 451 43 473Q43 478 42 489T41 506Q32 664 53 821Q90 1114 256 1176Q336 1204 389 1079Q394 1062 397 1022ZM70 291V330Q80 393 137 481T252 610Q295 638 328 627Q358
612 381 561T412 436Q427 263 371 147Q310 24 205 61Q151 79 114 156T70 291Z" />
<glyph unicode="7" glyph-name="seven" horiz-adv-x="565" d="M422 1057L457 1157Q458 1162 460 1170T464 1183T467 1192Q471 1212 471 1214Q468 1226 463 1233Q454 1244 440 1247Q430 1249 399 1247T360 1245Q315 1245 285 1247Q153 1251 88 1251Q20 1251 16
1247Q-9 1233 -18 1192Q-29 1141 0 1032Q9 1007 37 1014Q60 1020 57 1049Q42 1094 39 1137Q39 1140 38 1147T37 1157Q37 1176 39 1186Q41 1194 49 1194H88Q152 1194 203 1192Q326 1186 360 1186H399Q394 1156 367 1077L305 913Q271 829 225 657Q171 458 158 416T84
203Q50 110 18 -6Q16 -17 23 -28T41 -41Q53 -43 64 -37T76 -18Q98 61 139 182L211 387Q238 476 283 643Q315 771 358 893L422 1057Z" />
<glyph unicode="8" glyph-name="eight" horiz-adv-x="600" d="M313 602L270 633Q237 659 262 690Q265 694 309 760Q329 791 354 859T396 978T412 1032Q426 1139 367 1205T221 1264Q142 1256 77 1189T-10 1018Q-36 900 0 821T123 670Q152 645 129 612Q90 560 61
516Q-38 362 -23 174Q-12 50 69 -5T260 -35Q364 -9 436 75T504 266Q504 377 446 467Q427 497 386 537T313 602ZM215 725Q188 691 158 719Q84 779 55 843T47 1006Q67 1090 117 1144T225 1204Q271 1210 302 1183T346 1104Q349 1088 346 1053Q311 877 260 793Q244
767 215 725ZM236 586L274 555Q363 487 395 436Q443 357 446 266Q448 178 391 111T246 23Q162 3 104 43T35 178Q20 343 111 485Q127 514 176 578Q204 610 236 586Z" />
<glyph unicode="9" glyph-name="nine" horiz-adv-x="546" d="M446 1030L434 1087Q399 1205 320 1225T150 1159Q64 1080 29 967T39 768Q75 707 128 689T233 696Q315 734 369 817Q386 841 387 842V840Q387 838 387 834T388 824T388 811T388 796T389 779T389 762Q389
610 391 492Q393 293 393 37Q393 24 401 16T422 8T442 16T451 37Q451 317 449 539Q446 758 446 1026V1030ZM387 1020Q375 932 332 860T211 750Q135 719 88 797Q54 858 85 953T190 1118Q233 1159 269 1168T335 1151T381 1055Q387 1036 387 1020Z" />
<glyph unicode=":" glyph-name="colon" horiz-adv-x="327" d="M160 848H156Q143 848 143 848Q139 848 137 846Q135 846 133 844Q123 844 117 842Q83 833 80 805Q73 764 131 739Q156 729 182 736T223 762Q244 793 225 816T160 848ZM176 397Q152 406 100 385Q77
379 64 354T61 305Q77 261 119 264Q136 266 156 279Q186 299 197 326T201 373T176 397Z" />
<glyph unicode=";" glyph-name="semicolon" horiz-adv-x="411" d="M244 713Q246 718 252 724T260 733Q268 741 270 745Q292 780 285 803Q271 845 232 852T158 834T113 772T131 698Q159 668 187 671T238 702Q239 705 241 708T244 713ZM244 207V176Q243 165 240
154T234 137T225 116T215 94Q207 77 217 65T244 52T268 70Q291 120 301 166Q304 194 311 215Q326 275 307 332Q295 363 273 376T215 397Q179 405 168 403Q159 403 150 391Q119 353 116 313T135 246Q162 213 201 213Q215 213 231 214Q241 214 242 214T244 209Q244
208 244 207Z" />
<glyph unicode="&lt;" glyph-name="less" horiz-adv-x="417" d="M254 729L293 788Q306 810 311 819Q324 846 323 854Q322 859 319 864Q313 881 294 882T266 862Q250 826 207 762L156 688Q123 644 106 614Q50 532 18 469Q-24 387 -14 352Q4 273 115 145L158 98L201
49Q238 8 266 -35Q275 -51 292 -50T317 -36T315 -6Q298 27 246 86L201 137L160 184Q58 301 43 365Q41 372 47 391Q52 409 70 442Q89 479 156 582L205 653L254 729Z" />
<glyph unicode="=" glyph-name="equal" horiz-adv-x="741" d="M55 754Q43 754 35 746T27 725T35 705T55 696Q211 696 336 698H616Q629 698 637 706T645 727T637 747T616 756H336Q211 754 55 754ZM618 449H313Q96 438 14 401Q-2 394 -3 378T8 352T39 348Q113 378
218 384T618 391Q631 391 639 399T647 420Q647 432 639 440T618 449Z" />
<glyph unicode="&gt;" glyph-name="greater" horiz-adv-x="604" d="M418 600L471 573Q483 565 489 563Q490 562 492 561T496 559Q498 557 500 557Q506 551 508 547Q519 526 498 487Q488 468 457 426Q422 379 324 266L227 156L129 49Q119 37 110 26T94 5T84 -8Q73
-24 56 -22T33 -6T35 25Q50 47 84 86L184 197Q367 406 410 461Q426 480 436 498Q444 518 442 520L391 547L336 575Q317 586 301 594L160 686Q40 766 0 788Q-16 797 -15 814T-1 839T29 838Q116 787 190 737L334 643L362 629L418 600Z" />
<glyph unicode="?" glyph-name="question" horiz-adv-x="559" d="M328 688L377 729Q435 783 453 863T456 1017T399 1147Q354 1212 283 1232T151 1231T61 1163Q26 1107 20 1024Q14 901 14 887Q13 874 21 865T41 856Q53 854 62 862T72 883Q73 889 73 900T74 932T76
969Q78 1031 85 1067T111 1135Q128 1164 171 1177T267 1175T352 1112Q385 1067 398 1006T398 880T336 772Q334 770 329 766T314 753T293 735Q218 672 188 621Q154 566 144 473T143 305Q141 279 156 266Q162 260 176 260Q189 260 197 269T203 291Q193 356 201 449T238
592Q267 639 328 688ZM186 121L180 123Q168 125 157 118T145 100Q138 60 149 32T190 4Q220 8 225 39T215 100Q211 108 205 111Q193 119 186 121Z" />
<glyph unicode="@" glyph-name="at" horiz-adv-x="790" d="M479 596Q466 716 437 771T354 840Q319 850 296 830T238 756Q179 668 155 551T160 352Q171 326 194 302T242 270Q336 243 403 338Q431 378 432 377Q432 375 434 373Q459 324 506 324Q546 324 588 383T658
521T690 662Q695 731 678 828T627 1008Q580 1115 513 1167T358 1194Q230 1153 141 1014Q-6 781 -2 461Q0 348 39 250T147 98Q209 51 320 33T504 39Q534 47 594 78Q664 114 676 119Q694 126 695 142T685 169T655 172Q618 160 567 131Q518 106 487 96Q424 77 330
93T184 147Q98 209 68 361T74 678Q107 852 189 979T375 1137Q420 1150 459 1133T523 1080T569 995T601 901T618 815Q638 730 628 633T567 440Q555 417 537 399T506 381Q498 381 487 399Q475 422 469 467Q469 496 473 514Q481 568 479 596ZM416 612L408 518L401
469Q391 439 389 434Q364 372 330 344T258 328Q247 333 233 346T213 373Q189 436 212 542T287 725Q308 759 330 774Q331 775 333 776T336 778Q359 791 377 766Q388 749 406 707Q416 669 416 612Z" />
<glyph unicode="A" glyph-name="A" horiz-adv-x="512" d="M-14 25Q-14 12 -5 4T16 -2Q29 -2 37 7T43 29Q32 282 51 606Q54 643 88 649Q111 653 160 657Q186 660 213 663T256 667T279 670Q285 670 289 672Q287 649 287 578Q280 312 294 187T365 -2Q377 -17 393
-13T415 6T410 35Q363 89 351 205T344 575Q349 849 334 979T258 1196Q222 1242 187 1252T123 1243T74 1180Q37 1100 25 985Q-36 429 -14 25ZM102 711Q58 705 61 750Q69 853 75 912T95 1044T127 1155Q140 1182 151 1192T176 1195T209 1159Q285 1059 289 768Q289
727 281 727H270Q230 722 154 717Q145 716 102 711Z" />
<glyph unicode="B" glyph-name="B" horiz-adv-x="526" d="M35 -35V-12Q36 -24 46 -30T70 -35Q75 -33 111 -27Q158 -19 209 0Q285 36 336 98Q442 225 430 397Q423 482 364 573T236 700Q230 703 233 707Q236 709 238 711Q296 767 305 856Q319 1014 279 1135Q214
1308 49 1266Q37 1263 33 1251Q29 1243 29 1237Q28 1228 32 1212T35 1184Q23 1110 23 1010Q23 980 28 897T35 799Q43 741 37 403Q29 108 29 8Q35 -16 35 -35ZM100 1208V1212Q117 1219 143 1208Q195 1191 223 1114Q260 1011 248 860Q242 795 197 756Q182 741 150
725Q146 724 140 721T131 717L125 715Q123 713 121 713L119 711Q117 711 115 709L109 702Q101 693 104 676Q114 654 130 649T176 645Q190 647 201 647Q208 650 211 647Q267 618 330 516Q365 460 371 390T357 255T292 136T184 53Q173 49 133 39Q111 34 99 44T88
76Q88 115 92 287Q100 582 92 803Q92 806 92 818T90 853T88 901Q82 983 82 1016Q82 1144 100 1208Z" />
<glyph unicode="C" glyph-name="C" horiz-adv-x="507" d="M350 1016Q348 1003 354 993T373 981Q386 979 396 985T408 1004Q426 1094 375 1200Q349 1255 304 1277T207 1286Q164 1274 124 1240T59 1161Q7 1058 -14 868Q-34 701 -6 449T82 88Q118 23 173 2T279 8Q326
31 358 80T399 186Q401 199 394 208T375 219Q362 221 353 214T342 195Q336 147 311 115Q296 94 278 79T235 54T184 60T135 117Q80 211 51 477Q28 716 45 877T113 1133Q153 1211 223 1229Q265 1240 298 1206T346 1117T350 1016Z" />
<glyph unicode="D" glyph-name="D" horiz-adv-x="540" d="M72 1274Q179 1274 257 1229T378 1102T436 916T440 684Q420 461 331 259T133 4Q127 0 119 0Q112 1 103 -2T84 -6Q75 -9 63 -2Q54 4 51 16Q34 117 37 246Q38 299 39 352T40 432T41 469Q41 476 35 596Q25
798 25 930Q22 1116 45 1223L43 1245Q43 1258 51 1266T72 1274ZM381 690Q403 910 342 1046T143 1208Q125 1213 112 1205T96 1178Q81 1086 84 930Q84 764 92 602Q98 479 98 473Q99 463 96 246Q93 142 104 55Q106 55 109 57Q197 103 279 291T381 690Z" />
<glyph unicode="E" glyph-name="E" horiz-adv-x="524" d="M127 1253H229Q247 1252 288 1250T360 1247T399 1245Q412 1245 420 1237T428 1217Q428 1204 420 1196T399 1188Q374 1188 227 1194Q166 1197 131 1194H109Q102 1190 97 1183T88 1170L86 1165Q79 1125 76
1069Q71 986 68 778V754Q68 712 109 715Q141 717 188 717Q201 718 210 711T221 690Q221 678 213 669T193 659Q186 657 137 657Q131 657 119 656T102 655Q68 655 68 614Q68 496 70 424Q72 336 72 279V225Q70 193 70 141Q70 82 72 63Q74 57 74 45H86Q90 45 102 44T125
43H190Q248 43 287 45H348Q361 45 369 37T377 16Q377 4 369 -4T348 -12Q324 -12 287 -14T193 -16Q121 -16 98 -14H80Q52 -14 39 -6Q37 -6 33 -2Q20 9 16 29Q14 37 14 59Q12 80 12 141Q12 193 14 225V279Q14 342 12 465Q5 879 16 1073Q18 1115 27 1176Q39 1229 55
1239Q73 1250 127 1253Z" />
<glyph unicode="F" glyph-name="F" horiz-adv-x="559" d="M76 1253H63H59Q57 1251 55 1251T45 1247Q29 1236 29 1221V1214Q28 1210 27 1200T25 1184Q16 1131 16 1038Q14 1016 14 983Q12 969 12 954Q-7 766 2 494Q16 98 16 37Q16 24 24 16T45 8T65 16T74 37Q74
87 61 496Q59 537 59 608Q59 647 94 653Q132 657 166 657Q178 657 186 665T195 686T187 706T166 715Q153 715 132 714T102 713Q59 706 59 750Q60 783 63 841T68 926Q72 962 72 965Q72 967 73 971T74 979Q74 1012 76 1034Q76 1079 80 1153Q81 1160 82 1167T83 1179T84
1186V1194Q92 1196 117 1196Q353 1204 434 1204Q447 1204 455 1212T463 1233T455 1253T434 1262Q322 1262 115 1255Q98 1253 76 1253Z" />
<glyph unicode="G" glyph-name="G" horiz-adv-x="479" d="M379 399Q389 362 389 322Q389 223 351 123T252 -6Q167 -49 96 37T-2 301Q-27 463 -18 661T33 1004Q57 1087 95 1143T174 1222T256 1238T332 1192Q384 1131 381 1042Q381 1030 372 1023T350 1016Q338 1016
331 1025T324 1047Q326 1113 288 1154T199 1167Q134 1135 92 993T41 653Q33 463 56 305T127 92Q232 -33 299 154Q330 239 330 322Q330 359 324 377Q309 403 285 403Q276 402 256 401T225 399Q211 397 190 397Q178 397 170 405T162 426T170 446T190 455Q228 455
258 461Q316 463 341 452T379 399Z" />
<glyph unicode="H" glyph-name="H" horiz-adv-x="483" d="M387 1239Q387 1251 379 1259T358 1268Q346 1268 338 1260T330 1239Q330 1188 328 1031T326 768Q326 740 319 733T294 725Q289 725 287 725Q246 722 184 719Q147 717 96 717Q69 717 64 721Q55 728 55 758Q55
864 54 1022T53 1233Q53 1245 45 1253T25 1262Q12 1262 4 1254T-4 1233Q-4 893 -2 621Q0 348 0 8Q0 -4 8 -12T29 -20Q41 -20 49 -12T57 8Q57 338 55 614Q55 631 56 638T66 651T94 657Q121 657 186 662Q203 663 235 664T281 666Q304 668 314 661T324 627Q324 472
322 272T319 27Q319 14 327 6T348 -2Q361 -2 369 6T377 27Q377 230 383 635Q387 1171 387 1239Z" />
<glyph unicode="I" glyph-name="I" horiz-adv-x="466" d="M-2 43Q-14 43 -22 34T-29 12Q-29 0 -20 -8T2 -14Q152 -8 322 -14Q334 -15 343 -8T354 12Q354 25 346 34T326 43Q305 45 264 45Q235 46 230 49T225 65Q225 72 225 76Q217 203 219 281V375Q219 489 221
580Q223 668 223 772Q223 999 215 1116Q215 1121 213 1131T211 1144T215 1151T229 1157T256 1159Q280 1159 301 1159T333 1158L344 1157Q356 1157 364 1165T373 1186Q373 1198 365 1206T344 1214Q297 1214 244 1217Q87 1220 4 1206Q-8 1205 -15 1195T-20 1174Q-19
1162 -9 1155T12 1149Q29 1151 65 1154T113 1159Q140 1161 147 1154T156 1127Q156 1123 156 1120Q166 960 166 772Q166 668 164 580Q162 489 162 375Q162 330 160 283Q159 227 161 155T164 68Q164 47 121 47Q101 46 60 45T-2 43Z" />
<glyph unicode="J" glyph-name="J" horiz-adv-x="563" d="M438 1270H285Q206 1268 135 1272Q123 1274 114 1266T104 1245Q102 1233 110 1224T131 1214Q162 1210 242 1210Q262 1210 271 1206T283 1197T289 1176Q304 1108 309 1016Q320 855 309 659T268 309Q254
239 238 182Q221 133 205 117Q138 43 86 111Q32 178 23 281Q23 292 13 300T-8 309Q-21 308 -29 298T-35 276Q-23 151 39 74Q82 21 134 20T246 76Q296 126 326 299Q355 453 367 656T369 1020Q364 1099 350 1169Q343 1189 348 1201T387 1214H438Q451 1214 459 1222T467
1243Q467 1256 459 1263T438 1270Z" />
<glyph unicode="K" glyph-name="K" horiz-adv-x="546" d="M422 51H377L369 55Q352 68 344 84Q338 94 334 107T325 137T317 167T311 204T305 239T300 278T295 315Q284 416 281 434Q260 558 227 627T141 719Q102 738 121 770Q187 892 267 1007T408 1180Q420 1191
416 1207T397 1227T367 1221Q254 1111 121 887Q112 872 105 863T90 850T80 858T78 899Q90 1137 100 1212Q102 1225 95 1234T76 1245Q63 1247 54 1240T43 1221Q14 1002 14 715V670Q17 399 37 18Q37 6 46 -1T68 -8Q80 -8 87 1T94 23Q74 431 74 631Q74 686 119 666Q149
648 168 616Q190 580 205 518T225 420T238 307Q240 295 245 255T252 198T261 148T273 97T291 57T315 23Q325 11 338 4Q362 -8 383 -8Q408 -6 414 -6H422Q434 -6 442 2T451 23Q451 35 443 43T422 51Z" />
<glyph unicode="L" glyph-name="L" horiz-adv-x="440" d="M82 160V330Q80 384 84 600Q94 990 66 1190Q64 1202 55 1209T33 1214Q20 1213 13 1204T8 1182Q34 995 27 602Q23 388 25 330V295V233Q23 205 23 160Q25 117 25 57V45Q25 36 26 21T27 -4V8Q27 4 29 2Q32
-7 35 -10Q45 -27 96 -31Q138 -35 180 -35H315Q328 -35 336 -27T344 -6Q344 6 336 14T315 23Q190 23 180 25H127Q96 28 94 29Q88 29 84 31V57Q82 82 82 160Z" />
<glyph unicode="M" glyph-name="M" horiz-adv-x="745" d="M14 1188L16 1182Q18 1180 18 1178Q29 1084 29 952Q29 842 23 621Q14 431 14 289Q14 256 12 211Q9 74 25 14Q26 3 37 -3T61 -8Q72 -7 78 4T82 27Q70 85 70 154Q70 193 72 221V289Q72 424 80 621Q86 841
86 952Q86 1020 84 1049Q84 1131 91 1131Q94 1131 98 1122Q106 1110 115 1092Q153 1020 175 987T242 899Q261 872 261 867T246 840L162 717Q150 701 157 686T179 669T207 680Q226 705 276 780Q296 811 303 811T334 782Q387 712 399 694Q410 679 427 681T451 696T449
727Q446 732 358 848Q353 855 345 864Q337 873 337 877T347 897Q350 902 352 905L369 932Q435 1038 475 1094Q502 1129 520 1132Q526 1133 526 1128Q526 1123 527 1114T528 1100Q528 1064 537 965Q540 867 549 674Q562 252 592 35Q592 23 602 16T625 10Q637 10
644 20T649 43Q622 265 606 676Q603 812 594 969Q584 1159 580 1186T575 1214Q573 1221 573 1227L569 1235Q563 1244 555 1247Q522 1265 502 1225Q498 1217 496 1214L494 1210Q494 1208 492 1208Q422 1131 317 961Q308 946 304 939T295 932T288 932T278 945T264
963Q216 1021 168 1120Q142 1167 117 1202Q112 1208 107 1214T98 1224T92 1231Q90 1235 84 1241Q55 1267 28 1252T10 1198Q11 1196 12 1193T14 1188Z" />
<glyph unicode="N" glyph-name="N" horiz-adv-x="620" d="M193 987L160 1047Q139 1084 127 1112Q92 1190 86 1233Q84 1245 75 1252T53 1257Q45 1257 37 1249Q31 1242 29 1236T26 1224T25 1217V1206Q45 991 39 633Q39 622 39 591T37 498T35 379Q29 168 29 55Q29
43 37 35T57 27Q70 27 78 35T86 55Q86 168 92 379Q98 614 98 934Q98 970 102 984T115 992T129 975T145 946L139 958L430 393Q441 371 444 344Q458 104 467 18Q467 6 476 -1T498 -8Q510 -8 517 1T524 23Q510 154 504 336Q498 484 489 756Q489 770 490 791T492 845T494
903Q504 1108 481 1235Q480 1247 470 1253T446 1257Q434 1256 428 1246T424 1223Q444 1114 434 907Q428 768 434 623Q437 530 428 530Q423 530 399 584Q392 599 387 610L193 987Z" />
<glyph unicode="O" glyph-name="O" horiz-adv-x="587" d="M492 856V866Q485 1010 451 1102Q424 1172 374 1210T272 1251T169 1237T88 1184Q-47 1030 -14 530Q-10 456 -6 403T8 289T29 186T62 102T109 37T173 -3T258 -18Q297 -18 340 -2T410 41Q445 81 461 201Q476
312 486 496T492 856ZM432 891V883Q441 708 426 453Q417 299 401 209Q388 135 385 123Q377 94 365 82Q351 64 319 52T258 39Q217 39 186 54T132 102T95 174T70 275T54 394T43 535Q16 1011 133 1147Q177 1194 258 1194Q413 1192 432 891Z" />
<glyph unicode="P" glyph-name="P" horiz-adv-x="430" d="M4 1272Q-8 1272 -16 1264Q-27 1253 -23 1239Q-22 1228 -13 1213T-2 1186Q8 995 2 614Q-4 215 25 6Q26 -6 35 -13T57 -18Q70 -17 77 -8T82 14Q53 236 59 614Q59 634 90 649Q167 692 209 723Q283 776 319
868Q353 972 315 1069Q278 1166 193 1222T4 1272ZM113 729Q91 717 76 725T61 760Q67 959 59 1163Q57 1185 69 1195T102 1198Q198 1165 246 1076T262 889Q246 839 210 802T113 729Z" />
<glyph unicode="Q" glyph-name="Q" horiz-adv-x="563" d="M397 55L418 35Q429 22 445 26T465 45T459 76L406 135Q383 158 389 188Q409 282 413 413T412 748V836L416 872Q416 1023 391 1091T295 1214Q245 1255 192 1261T91 1232T14 1124Q-84 893 0 201Q12 91 59
10Q93 -42 141 -61Q192 -79 250 -52T342 45Q357 77 365 78T397 55ZM344 281Q340 236 328 234T289 268Q279 282 262 305T236 340Q225 356 208 354T184 338T186 307Q231 244 295 168Q318 142 307 113Q278 35 231 6Q189 -16 162 -7T111 41Q71 105 57 209Q-23 883 68
1104Q102 1186 153 1200T258 1169Q343 1101 354 1012Q363 979 358 877T354 748Q357 411 344 281Z" />
<glyph unicode="R" glyph-name="R" horiz-adv-x="577" d="M137 647L131 645Q98 633 98 596Q86 83 86 27Q86 14 78 6T57 -2Q45 -2 37 6T29 27Q29 169 35 418Q36 495 39 618T44 797T44 948T37 1149Q36 1179 23 1186T-10 1184Q-11 1184 -13 1183T-16 1182Q-33 1174
-46 1184T-59 1210T-41 1235Q40 1270 129 1264T295 1214Q382 1170 423 1093T446 920Q425 798 305 725Q291 715 268 705Q237 687 260 653Q321 568 336 401Q339 377 342 315Q347 218 358 156Q372 102 381 86Q389 74 393 70Q394 69 395 67T397 63Q413 68 424 78L430
84Q442 99 458 96T480 78T475 47Q441 2 399 3T328 61Q299 116 289 219Q286 257 283 315Q280 379 276 397Q264 574 193 639Q172 659 137 647ZM147 715Q259 757 316 804T389 932Q403 1005 370 1065T268 1163Q208 1198 137 1204Q116 1205 105 1194T96 1163Q103 950
98 748Q98 725 112 715T147 715Z" />
<glyph unicode="S" glyph-name="S" horiz-adv-x="604" d="M66 139L78 109Q111 48 176 27Q239 5 306 17T428 74Q505 135 510 268Q510 351 479 412Q445 476 397 524Q341 580 293 618Q291 621 276 631Q178 711 125 776Q61 852 76 956Q93 1067 158 1128T301 1184Q378
1179 421 1108T446 918Q445 905 452 896T471 885T493 890T504 909Q527 1052 469 1143T305 1243Q203 1251 121 1175T18 965Q10 918 20 866Q32 816 48 784T102 711Q137 672 159 652T233 592Q237 588 242 583T250 576T256 571L307 528Q333 507 356 483Q403 434 426
385Q451 331 451 266Q451 241 440 193Q429 151 390 119T297 76Q243 63 199 79T131 137Q128 142 123 156L117 174Q113 186 111 195L106 215Q102 235 102 258V283Q100 293 100 303V350Q100 363 92 371T72 379Q59 379 51 371T43 350V264Q43 238 45 231Q46 227 47 217T49
201Q51 170 66 139Z" />
<glyph unicode="T" glyph-name="T" horiz-adv-x="555" d="M279 1171H432Q445 1171 453 1179T461 1200Q461 1213 453 1221T432 1229Q43 1229 8 1227Q-4 1227 -12 1218T-18 1196Q-18 1184 -9 1176T12 1169Q49 1171 135 1171Q179 1171 176 1130Q169 884 172 395Q174
227 174 49Q174 37 182 29T203 20Q215 20 223 28T231 49V395Q228 888 236 1133Q239 1171 279 1171Z" />
<glyph unicode="U" glyph-name="U" horiz-adv-x="540" d="M92 1214Q93 1227 86 1236T66 1247Q53 1247 44 1239T35 1219Q-12 681 70 311Q90 216 121 139Q179 5 256 2Q340 -6 389 131Q415 203 424 303Q441 463 444 614Q449 674 445 811T440 988T428 1206Q428 1219
419 1227T397 1235Q385 1233 378 1224T371 1202Q380 1005 383 897Q395 593 367 311Q353 207 334 150Q318 101 297 80Q282 59 260 59Q218 62 176 162Q148 230 127 324Q46 701 92 1214Z" />
<glyph unicode="V" glyph-name="V" horiz-adv-x="655" d="M223 483L281 244Q293 206 302 205Q315 204 326 268Q332 296 338 328Q365 446 401 659Q437 887 451 950Q465 1016 477 1067Q497 1147 502 1180Q503 1192 512 1199T535 1204Q547 1203 554 1194T559 1171Q553
1127 535 1053Q525 1013 508 938Q489 844 459 649Q417 405 395 315Q389 289 372 200T341 57T319 0Q307 -7 291 2L283 10Q281 12 281 16L276 20Q276 23 272 35L260 82L225 225Q167 468 166 471Q163 493 147 549L111 696L74 850Q49 953 25 1073Q1 1186 8 1210Q9 1222
19 1228T43 1233Q55 1232 61 1221T66 1198Q65 1196 68 1163Q68 1160 82 1085T131 862L168 709L205 563Q220 503 223 483Z" />
<glyph unicode="W" glyph-name="W" horiz-adv-x="923" d="M729 1061L770 1243Q771 1255 782 1261T807 1266Q817 1265 823 1254T827 1231L786 1047Q761 915 717 664L684 459L655 272L625 115Q622 102 618 84T610 54T604 33Q603 24 596 4Q596 3 595 1T594 -2T592
-7T588 -14Q577 -25 563 -25Q553 -25 545 -18L541 -14Q537 -10 537 -8V-6L535 -4L532 2L522 27L494 109Q452 226 434 299L414 393Q390 502 386 504Q384 506 381 494Q379 488 365 393L348 291Q348 284 342 229Q326 107 317 72Q308 35 305 25Q304 24 303 21T301 16Q287
-8 264 -8Q250 -8 242 0Q241 1 240 4T238 8Q234 12 231 18Q230 22 227 32T221 47L197 129L152 283Q139 329 139 330Q131 358 127 375L111 438Q109 447 96 508L84 573Q82 591 72 647Q61 710 61 711Q60 715 58 734T52 779T45 821Q44 831 42 846T39 870Q36 881 33
900T23 951T12 1008Q-16 1164 -16 1237Q-16 1249 -8 1257T12 1266Q25 1266 33 1258T41 1237Q41 1162 70 1022Q97 881 100 854Q100 852 103 833T111 795L119 733L127 676Q136 611 147 557Q156 512 160 496L172 440Q179 403 186 381L203 324Q203 320 240 193Q245
180 252 168T265 150L270 145Q279 202 283 238Q287 270 287 274Q290 298 295 324L346 645Q349 674 344 698Q279 998 258 1214Q256 1225 264 1235T285 1247Q296 1247 305 1239T315 1219Q333 1062 350 969Q370 863 374 859Q377 856 380 865Q384 877 399 967L446 1227Q448
1239 458 1245T481 1249Q493 1248 499 1238T504 1214Q437 858 414 700Q411 672 416 649L492 311Q505 249 549 129L532 176Q550 127 563 125Q566 125 567 129Q589 228 597 274T627 467L659 676L692 856L729 1061Z" />
<glyph unicode="X" glyph-name="X" horiz-adv-x="526" d="M319 831L348 942Q386 1102 426 1171Q437 1187 428 1201T403 1215T377 1200Q328 1120 291 954Q262 849 262 848L231 741Q213 677 205 678T180 743L162 817Q153 855 104 1008Q62 1134 49 1192Q48 1204 38
1210T14 1214Q2 1213 -4 1203T-8 1180Q8 1104 47 989Q85 878 104 805L164 563Q170 536 162 510Q68 213 -6 25Q-14 8 -4 -4T23 -16T47 4Q118 173 172 348Q189 404 195 404T223 348Q240 304 282 182T350 4Q358 -13 374 -13T401 -1T403 29Q313 222 238 510Q230 538
240 563L319 831Z" />
<glyph unicode="Y" glyph-name="Y" horiz-adv-x="632" d="M135 803L176 694Q177 692 185 675T197 643T199 618Q181 476 195 219Q201 81 201 33Q201 20 209 12T229 4Q242 4 250 12T258 33Q258 41 254 225Q247 376 250 467Q250 572 259 622T305 758Q345 856 422
1022T532 1239Q543 1255 535 1270T511 1285T483 1272Q449 1223 334 971L250 780Q249 778 248 775T241 765T231 758T217 765T201 793L180 844L127 983Q72 1151 53 1233Q52 1245 42 1251T18 1255Q6 1254 0 1244T-4 1221Q17 1113 80 946L135 803Z" />
<glyph unicode="Z" glyph-name="Z" horiz-adv-x="614" d="M459 1260H446Q442 1260 440 1257Q432 1256 418 1255T395 1253Q392 1252 386 1251T375 1249Q193 1225 29 1245Q16 1247 7 1240T-4 1221Q-6 1208 1 1199T20 1188Q187 1164 383 1192Q386 1192 391 1193T399
1194Q407 1195 414 1196T426 1197T434 1198Q435 1198 438 1199T442 1200Q442 1193 438 1167Q427 1115 406 1051Q353 902 328 852Q316 832 260 692L154 418L53 156Q32 99 23 68Q23 66 20 63Q12 43 12 37V31V25Q10 18 14 10Q18 -1 33 -8Q49 -14 82 -14Q88 -16 106
-16Q156 -16 246 -10L344 -4Q401 -1 438 2Q463 4 489 4Q502 4 510 12T518 33Q518 45 510 53T489 61Q463 61 438 59Q396 56 342 53Q212 43 106 43Q78 41 78 49Q87 81 109 135L207 397L315 670Q347 751 381 827Q414 891 450 997T496 1155Q506 1206 496 1233Q490 1248
475 1255Q473 1257 467 1257Q465 1260 459 1260Z" />
<glyph unicode="[" glyph-name="bracketleft" horiz-adv-x="491" d="M129 23L111 29Q109 30 106 32Q103 33 102 33Q93 61 102 133Q117 237 117 254Q120 401 115 616Q109 850 109 936Q109 940 108 948T106 971T104 999Q94 1105 104 1145Q109 1168 116 1172T156
1176Q294 1176 358 1157Q389 1153 395 1178Q402 1204 375 1214Q297 1235 154 1235Q104 1233 81 1219T47 1159Q35 1107 45 993Q51 948 51 936Q51 850 57 616Q61 328 59 254Q59 253 58 242T52 202T43 141Q34 52 49 12Q61 -17 99 -29T205 -47H365Q377 -47 385 -39T393
-18Q393 -6 385 2T365 10Q221 10 209 12Q148 15 129 23Z" />
<glyph unicode="\" glyph-name="backslash" horiz-adv-x="563" d="M53 1214Q52 1227 43 1234T20 1239Q8 1238 1 1229T-4 1206Q5 1134 53 983Q60 963 65 944T75 908T82 885Q168 580 241 382T414 12Q422 -4 439 -3T464 11T463 41Q365 213 293 410T139 901Q129 941
109 1001Q60 1156 53 1214Z" />
<glyph unicode="]" glyph-name="bracketright" horiz-adv-x="428" d="M84 -31H55Q43 -32 34 -24T25 -4Q23 8 31 17T51 27Q55 29 82 29Q122 29 186 33Q195 34 254 41Q276 49 276 68Q276 106 274 154Q273 174 272 209T270 304T266 412Q251 825 254 852Q254 868 260
926Q275 1107 262 1145Q262 1147 260 1147Q251 1150 236 1153Q205 1159 154 1159Q86 1159 -2 1153Q-14 1151 -23 1159T-33 1180Q-35 1192 -27 1201T-6 1210Q72 1219 154 1219Q216 1219 248 1210Q304 1199 315 1171Q335 1128 326 1008Q325 983 318 916L311 848Q310
810 319 549T334 154Q336 113 336 68V35Q335 32 334 28T332 20Q327 10 316 3T298 -7T270 -16Q211 -29 137 -29Q119 -31 84 -31Z" />
<glyph unicode="^" glyph-name="asciicircum" horiz-adv-x="524" d="M264 1094L268 1063Q304 859 371 676Q382 649 408 658T428 696Q365 859 330 1047Q329 1054 327 1069T324 1096Q321 1148 311 1186Q309 1206 299 1217Q290 1226 279 1229Q275 1232 270 1230T262
1228T256 1225T250 1220T245 1213T240 1204T235 1192T230 1178T224 1162T217 1143Q126 913 -25 674Q-35 658 -27 643T-3 628T25 641Q137 821 221 999L264 1094Z" />
<glyph unicode="_" glyph-name="underscore" horiz-adv-x="905" d="M-8 16Q-20 15 -26 4T-31 -18Q-30 -30 -19 -36T4 -41Q68 -26 219 -29Q268 -31 319 -31Q343 -31 549 -27Q651 -25 780 -25Q793 -25 801 -17T809 4T801 24T780 33Q651 33 549 31Q343 27 319 27Q314
27 302 27T266 29T223 31Q69 37 -8 16Z" />
<glyph unicode="`" glyph-name="grave" horiz-adv-x="360" d="M217 1104L172 1147Q132 1187 76 1214Q59 1222 46 1212T33 1186T51 1161Q99 1136 133 1102L176 1063L215 1024Q238 1005 257 1027T256 1069Q255 1070 217 1104Z" />
<glyph unicode="a" glyph-name="a" horiz-adv-x="534" d="M-14 12Q-16 0 -9 -9T10 -20Q23 -22 32 -15T43 4Q51 51 68 268Q74 359 83 472T94 612Q95 631 107 641T137 649Q255 645 313 639Q351 639 354 600Q381 314 381 4Q381 -8 389 -16T410 -25Q422 -25 430 -17T438
4Q438 481 371 963Q371 964 371 968T369 983T367 1006Q354 1108 340 1149Q327 1193 306 1220T253 1256T180 1243Q128 1215 90 1034Q65 918 54 816T18 399Q12 318 8 272Q-5 83 -14 12ZM145 709Q123 709 114 717T106 752Q112 847 147 1022Q166 1108 180 1143Q187
1164 195 1171Q206 1195 231 1198Q248 1200 261 1184T285 1130T307 1001Q337 791 340 741Q341 719 337 710T322 700T297 700Q244 705 145 709Z" />
<glyph unicode="b" glyph-name="b" horiz-adv-x="612" d="M35 1262Q23 1261 17 1251T12 1227V1208Q7 1126 8 1099T18 993Q22 963 29 891Q30 860 33 776T37 641Q41 313 41 16Q41 4 49 -4T70 -12Q86 -14 129 -10Q230 11 307 52T430 148T499 266T519 399T489 537Q461
612 412 666Q345 737 256 750Q234 752 230 759T238 784Q269 830 295 891Q321 957 315 1026T272 1153Q235 1216 172 1245T35 1262ZM70 1200V1204Q84 1208 111 1204Q181 1192 223 1122Q252 1078 257 1021T242 915Q202 824 143 756Q129 739 120 733T102 736T92 776L86
895Q81 968 76 1001Q67 1084 66 1100T70 1200ZM111 45L104 43Q98 40 98 92Q98 461 96 569Q96 599 113 621Q189 715 281 684Q328 671 369 625T434 516Q456 457 459 399T442 286T381 184T271 101T111 45Z" />
<glyph unicode="c" glyph-name="c" horiz-adv-x="571" d="M418 983Q418 971 426 963T446 954Q459 954 467 962T475 983Q475 1141 417 1219T266 1270Q184 1246 120 1148T43 918Q-21 325 55 143Q90 59 147 16T268 -16Q331 -8 376 48T434 193Q436 205 429 214T410
225Q397 227 388 220T377 201Q366 130 335 89T262 43Q220 37 178 68T109 164Q41 331 100 909Q117 1033 168 1114Q221 1194 279 1212T371 1184Q418 1123 418 983Z" />
<glyph unicode="d" glyph-name="d" horiz-adv-x="509" d="M74 1245H72Q59 1245 51 1238T43 1219V1214Q43 1169 39 895Q33 690 33 625Q30 270 51 31Q51 20 61 10Q68 4 76 4Q82 3 121 8Q127 8 137 18Q230 126 299 266T397 551Q468 898 281 1120Q228 1185 182 1214T74
1245ZM158 139Q141 112 121 115T100 156Q89 391 92 625Q92 629 96 887Q100 1087 100 1133Q100 1169 114 1174T147 1163Q188 1140 236 1083Q311 993 339 873T350 627T283 376T158 139Z" />
<glyph unicode="e" glyph-name="e" horiz-adv-x="530" d="M109 1229H115Q121 1231 145 1231Q188 1231 240 1229Q307 1227 383 1227Q386 1227 393 1227T403 1226T412 1227T421 1230T428 1237Q436 1242 436 1257Q434 1270 425 1277T403 1284Q400 1284 382 1284T324
1286T242 1288Q190 1290 143 1290T78 1280Q50 1262 39 1188Q31 1117 45 922Q47 902 49 874T51 840T52 816T53 784T51 741Q51 730 48 671T43 571Q31 294 41 133Q44 78 53 43Q64 -7 90 -16Q138 -38 240 -35Q370 -25 379 -25Q391 -25 399 -17T408 4T400 24T379 33Q342
33 311 31Q298 30 269 28T223 24T185 23T147 27Q117 32 117 66Q117 46 113 47Q113 48 112 51T111 57Q103 88 100 137Q88 300 104 610Q105 638 114 644T147 651Q199 651 219 653Q231 653 239 662T248 684Q246 696 237 704T215 711Q199 709 152 709Q128 709 119 717T111
754Q112 785 112 804T112 834T109 872T104 926Q90 1117 98 1182Q98 1185 99 1189T100 1196Q101 1204 102 1211T105 1221T106 1225Q106 1227 109 1229Z" />
<glyph unicode="f" glyph-name="f" horiz-adv-x="565" d="M96 1262Q82 1262 78 1257Q65 1248 59 1225Q57 1223 57 1214Q57 1202 57 1178T59 1108T61 1026Q65 864 63 844Q55 735 43 428Q34 181 51 20Q51 8 60 0T82 -6Q94 -6 102 3T109 25Q89 230 111 635Q112 650
114 658T123 670T133 674T152 676Q161 677 180 678T213 680T236 682Q248 682 256 691T264 713Q262 725 253 732T231 739Q199 739 172 737H160Q138 734 128 741T119 776Q120 788 120 809T121 840Q127 950 117 1159Q116 1179 127 1190T158 1200Q188 1198 268 1198Q360
1198 438 1194Q449 1192 459 1200T471 1221Q471 1232 463 1241T442 1251Q384 1257 266 1257Q189 1257 96 1262Z" />
<glyph unicode="g" glyph-name="g" horiz-adv-x="524" d="M258 418H291Q346 423 358 403Q373 382 369 296T340 139Q310 58 274 40T182 70Q133 116 98 283Q65 444 61 644T82 997Q94 1059 112 1105T152 1176T198 1211T246 1212T293 1178Q320 1151 328 1114T324 1040Q316
1022 326 1009T353 997T377 1016Q396 1072 385 1126T336 1219Q297 1263 246 1269T133 1241Q58 1187 25 1008Q-3 851 2 644T41 270Q78 93 150 19T301 -12Q357 18 390 106T428 297Q432 393 409 432T328 477H289L258 475Q246 475 238 467T229 446Q229 434 237 426T258
418Z" />
<glyph unicode="h" glyph-name="h" horiz-adv-x="585" d="M158 657H369Q385 657 392 656T404 645T410 616Q410 545 406 459Q398 148 432 20Q433 9 444 3T469 -2Q479 -1 485 10T489 33Q459 153 465 459Q465 536 471 692Q475 902 475 909Q475 946 477 979Q479 1010
479 1059Q479 1143 459 1210Q452 1227 436 1229T408 1220T401 1190Q422 1135 422 1059Q418 985 418 909Q418 825 414 756Q413 731 403 723T371 715H156Q133 715 124 722T115 756Q115 786 119 950Q124 1099 121 1202Q121 1214 112 1222T90 1231Q78 1229 70 1220T63
1198Q65 1162 61 952Q56 761 56 708T68 393Q76 177 76 20Q76 8 84 0T104 -8Q117 -8 125 0T133 20Q133 228 125 457Q122 559 119 616Q118 643 126 650T158 657Z" />
<glyph unicode="i" glyph-name="i" horiz-adv-x="233" d="M131 1229Q131 1241 122 1249T100 1257Q88 1255 81 1246T74 1225Q83 951 66 547Q59 464 70 270Q80 45 80 -2Q80 -14 88 -22T109 -31Q121 -31 129 -23T137 -2Q137 37 127 272Q119 417 123 543Q141 988 131 1229Z" />
<glyph unicode="j" glyph-name="j" horiz-adv-x="614" d="M236 1204H127Q115 1204 107 1212T98 1233T106 1253T127 1262Q361 1262 487 1268Q499 1269 508 1261T520 1241Q520 1229 512 1220T492 1210Q474 1209 436 1208T377 1206Q334 1203 340 1161Q363 988 360
660T328 199Q299 71 233 12Q190 -28 137 -15T41 66Q7 113 -4 182Q-14 231 -23 301Q-29 344 -29 352Q-31 365 -24 375T-4 387Q9 387 18 381Q23 377 26 371T30 362T32 349T33 336Q33 329 37 305L43 246Q47 196 70 141Q82 113 90 98Q124 47 152 41Q174 38 195 57Q250
107 270 211Q301 353 301 705Q301 792 297 924Q297 897 291 958Q274 1125 274 1165Q274 1204 236 1204Z" />
<glyph unicode="k" glyph-name="k" horiz-adv-x="540" d="M319 256L299 307Q286 342 281 352Q205 545 145 633Q127 660 141 688Q175 748 213 831Q332 1075 418 1180Q429 1194 422 1209T401 1227T373 1217Q281 1103 170 877Q164 864 154 843T141 817Q122 777 107
785T92 856Q92 1009 100 1227Q101 1239 94 1248T74 1260Q61 1260 52 1252T43 1231Q33 1033 33 854Q33 737 37 401T41 23Q41 10 49 2T70 -6Q82 -6 90 2T98 23V207Q96 270 96 422Q96 438 95 465T94 506Q94 542 103 551T123 551T145 520Q191 430 227 332Q239 296 244
285L262 236L283 188Q296 151 303 139L324 98Q338 66 346 53Q366 13 391 -23Q403 -38 420 -36T443 -19T440 10Q428 25 418 45L397 82Q381 108 375 123L356 164Q341 201 336 213L319 256Z" />
<glyph unicode="l" glyph-name="l" horiz-adv-x="462" d="M12 293V141Q18 74 27 38T63 -10Q110 -33 207 -27Q306 -21 332 -29Q344 -31 355 -25T367 -6Q369 5 362 16T344 29Q314 36 203 33Q163 31 117 35Q88 41 84 55Q80 63 80 68Q76 88 72 145Q70 158 70 293Q70
457 68 586T66 934Q66 1087 72 1225Q73 1237 65 1246T45 1257Q33 1257 24 1249T14 1229Q6 1106 6 936Q6 844 10 586Q12 457 12 293Z" />
<glyph unicode="m" glyph-name="m" horiz-adv-x="694" d="M16 1194V1167Q16 1141 25 983Q26 967 26 946T27 913T29 895Q35 753 29 455Q23 147 31 8Q31 -4 40 -12T61 -18Q74 -18 82 -9T88 12Q83 143 86 453Q89 786 86 899Q86 911 78 1083Q78 1083 82 1102Q88 1117
102 1096Q104 1092 127 1053L184 942L231 850Q253 815 279 743L297 696Q298 693 299 689Q300 683 301 682L303 676L307 672L313 666Q326 657 337 660T356 672L360 676L362 682Q362 683 364 689Q366 693 367 696Q368 701 370 707T375 723T381 741L426 885Q434 910
448 954T469 1018Q484 1065 508 1100Q512 1107 512 1104Q512 1100 513 1091T514 1077Q518 959 518 907V760Q515 641 518 598Q518 522 520 455Q520 332 522 291Q526 122 541 -8Q541 -21 550 -29T571 -35Q584 -35 592 -26T598 -4Q590 92 588 152L582 295Q575 377
575 600V907Q575 1097 565 1180Q562 1199 559 1217Q558 1220 557 1224T555 1231Q547 1249 529 1252T494 1239Q486 1232 483 1219Q483 1218 482 1213T479 1204L477 1200Q436 1115 369 903L352 848Q342 814 335 806T321 805T299 846L238 973Q154 1135 104 1194Q102
1196 88 1217Q62 1246 35 1231Q21 1224 18 1212V1206Q16 1204 16 1194Z" />
<glyph unicode="n" glyph-name="n" horiz-adv-x="548" d="M133 1100L100 1210Q91 1242 68 1251Q50 1254 39 1249Q27 1241 25 1215T29 1090Q29 1045 23 952Q18 850 18 813Q18 736 12 567Q4 418 4 258Q4 110 18 12Q19 0 29 -7T51 -12Q64 -11 71 -2T76 20Q63 167
63 272T70 549Q76 734 76 813Q76 846 82 950Q82 956 83 966T85 998T88 1032T90 1042Q100 1017 104 995Q108 983 186 651Q236 438 279 307L332 145L354 70Q355 66 365 47L369 37Q369 35 371 33Q372 32 373 30T375 27Q386 20 393 20Q410 17 424 35Q428 43 430 49Q433
61 436 82Q440 122 440 168V330Q440 348 436 610Q423 1017 453 1223Q454 1235 447 1244T428 1255T406 1250T395 1231Q365 1005 377 608Q383 408 383 330V240Q383 216 362 260Q346 295 338 324L336 328Q324 363 309 418T278 535T246 661T215 787T189 895T170 976T162
1012Q151 1053 133 1100Z" />
<glyph unicode="o" glyph-name="o" horiz-adv-x="528" d="M426 864Q421 1074 395 1145Q369 1222 320 1259T199 1280Q155 1270 112 1235T45 1157Q-2 1065 -18 928T-23 655T6 408T47 219Q84 94 131 35Q204 -48 291 8Q361 53 393 182Q447 387 426 864ZM369 961Q378
569 371 446Q353 116 258 57Q233 43 215 47T176 74Q141 115 104 236Q82 314 64 420T35 657T39 915T98 1128Q116 1161 148 1188T211 1223Q301 1243 340 1124Q363 1060 369 961Z" />
<glyph unicode="p" glyph-name="p" horiz-adv-x="458" d="M147 655L197 684Q211 693 238 713Q292 750 315 788Q356 850 362 924Q375 1061 266 1171Q216 1222 146 1242T6 1245Q-6 1242 -12 1233Q-26 1205 -4 1192Q-4 1190 -2 1190Q26 1114 23 944Q20 929 17 822T14
674Q15 652 33 389Q47 186 47 49Q47 37 55 29T76 20Q88 20 96 28T104 49Q104 182 90 385L76 600Q75 607 76 612T80 620T86 624T96 628T109 633Q117 636 147 655ZM80 686T76 682T72 733Q72 743 73 765T74 801Q80 927 80 944Q86 1066 70 1147Q65 1169 74 1182T104
1192Q155 1183 200 1150T270 1071Q304 1011 305 949T266 821Q242 788 203 760Q166 733 123 709Q109 702 100 696Q80 686 76 682Z" />
<glyph unicode="q" glyph-name="q" horiz-adv-x="638" d="M485 39L492 31Q503 16 519 19T541 37T537 68L494 123Q472 146 481 178Q516 315 528 551T520 950V954Q506 1036 470 1116T387 1243Q341 1291 291 1297T192 1264T104 1139Q69 1064 54 926T43 647T66 387Q72
340 108 248T186 90Q217 43 250 15T316 -22T383 -8T442 68Q442 68 446 73Q457 77 485 39ZM467 913V911Q481 760 473 576T438 258Q431 222 430 220Q424 209 399 229Q391 236 369 254Q354 266 338 259T321 236T332 209Q354 194 385 160Q409 135 399 115Q397 112 394
106T389 96Q373 63 356 49T320 39T281 64T236 123Q197 181 164 266T123 395Q96 556 103 783T158 1114Q206 1222 260 1237Q300 1246 344 1202Q392 1155 419 1090T467 913Z" />
<glyph unicode="r" glyph-name="r" horiz-adv-x="563" d="M195 653L190 651Q184 649 190 637Q222 585 252 522T301 411T373 236Q410 134 449 66Q458 49 448 35T422 21T395 37Q356 112 317 213Q179 572 133 616Q128 621 127 623Q119 563 119 559Q118 541 117 506T115
453Q115 452 111 354Q104 254 104 147Q104 93 109 41Q111 29 103 20T82 10Q70 8 61 16T51 37Q45 84 45 145Q45 258 51 358Q54 431 57 457Q76 863 49 1186Q49 1190 44 1208T41 1237Q42 1239 43 1242T45 1247Q49 1259 61 1262Q180 1290 272 1262T420 1159Q475 1091
468 993T393 809Q314 705 195 653ZM137 700Q145 700 152 702T164 706L168 707Q191 717 195 719Q285 764 344 842T408 995Q411 1072 371 1124Q338 1174 279 1199T145 1219Q109 1216 109 1174Q124 992 121 743Q121 700 137 700Z" />
<glyph unicode="s" glyph-name="s" horiz-adv-x="583" d="M401 954Q399 942 405 932T424 920Q437 918 447 924T459 942Q490 1084 436 1169T272 1257Q172 1257 91 1185T-4 999Q-19 875 47 782Q81 735 107 707T190 627Q250 574 277 547T342 473Q416 382 428 262Q440
145 393 82T268 25Q185 31 128 112T70 330Q70 342 62 350T41 358T21 350T12 330Q12 175 83 76T262 -35Q370 -43 436 42T485 270Q473 400 387 508Q377 520 369 530T352 549T338 565T323 581T309 596T292 612T275 628T255 648T231 670Q174 723 149 749T96 815Q41
893 53 991Q65 1084 129 1141T272 1198Q351 1196 388 1133T401 954Z" />
<glyph unicode="t" glyph-name="t" d="M170 1176L172 1165Q183 1109 180 981Q178 938 178 893Q178 818 172 637Q155 230 184 51Q185 39 195 32T217 27T236 38T242 59Q216 229 229 633Q236 845 236 893Q236 898 236 909T238 940T240 977Q246 1087 231 1155L227
1184Q372 1178 455 1182Q467 1182 475 1191T483 1212Q481 1225 472 1232T451 1239Q417 1237 229 1241Q75 1247 2 1239Q-10 1239 -18 1230T-25 1208Q-25 1196 -16 1188T6 1182Q79 1186 129 1184Q170 1184 170 1176Z" />
<glyph unicode="u" glyph-name="u" horiz-adv-x="491" d="M70 1221Q71 1233 63 1242T43 1253Q31 1253 22 1245T12 1225Q-4 1044 10 739Q25 400 18 262Q9 128 31 68Q46 13 86 -14Q130 -46 201 -35T311 23Q371 100 387 229Q394 300 391 401Q389 440 389 477Q389
524 395 735Q398 953 393 991Q393 1031 385 1102Q377 1165 377 1210Q377 1223 369 1231T348 1239Q336 1239 328 1231T319 1210Q319 1180 326 1098Q329 1074 331 1052T334 1011T336 987Q339 941 336 733Q335 675 334 615T333 522T332 477Q332 434 334 397V311Q334
226 313 160Q294 96 266 63T190 23Q111 11 86 84Q70 140 76 258Q85 411 70 743Q53 1060 70 1221Z" />
<glyph unicode="v" glyph-name="v" horiz-adv-x="552" d="M43 854L27 971Q0 1155 -16 1221Q-18 1233 -12 1243T6 1257Q16 1261 26 1255T41 1237Q71 1112 86 979Q99 870 100 862Q102 852 112 793T147 596T197 317Q203 284 215 223L236 158Q243 195 276 500Q294
661 324 854Q350 1034 399 1206Q410 1233 436 1227Q461 1221 457 1190Q405 1023 381 844L356 680Q350 638 336 496Q322 379 315 326Q310 282 306 242T299 178T295 150Q294 142 292 129T289 107T285 92Q276 51 272 43Q271 42 270 40T268 37Q266 31 258 23Q247 11
227 14Q220 14 209 25V27Q208 28 207 31T205 35L201 43L195 68L174 141Q142 284 139 305Q46 833 43 854Z" />
<glyph unicode="w" glyph-name="w" horiz-adv-x="831" d="M160 418L125 725Q119 781 113 837T103 923T98 965Q95 999 86 1051Q67 1161 70 1225Q71 1237 63 1246T43 1257Q31 1257 22 1249T12 1229Q6 1170 29 1038Q39 979 41 956L66 717Q119 254 137 164Q141 146
146 122T154 82T160 55Q162 48 164 38T168 25Q171 15 172 14T174 10T176 6L184 -2Q202 -12 215 -4Q221 -1 227 8Q227 12 229 14T231 23Q238 43 238 45Q247 82 254 119L295 342Q322 500 336 567Q361 683 385 567Q426 373 532 115Q550 70 565 43Q574 28 580 23Q592
13 608 16Q615 18 620 23T627 31T633 41T637 49Q640 66 643 84Q644 96 645 128T647 176Q647 208 643 336Q622 810 735 1200Q739 1231 715 1237Q688 1243 678 1217Q564 812 586 332Q588 281 588 178Q588 152 571 183Q559 205 543 248Q457 476 412 715Q411 724 406
749T399 780Q396 800 393 809Q389 825 385 829Q381 834 365 838T338 838Q315 825 311 782Q299 684 238 352L223 283Q215 240 207 226T193 223T183 250T176 285Q172 316 160 418Z" />
<glyph unicode="x" glyph-name="x" horiz-adv-x="638" d="M211 590L123 356L51 203Q6 111 -16 39Q-20 10 4 4Q32 -3 41 23Q51 61 104 178Q175 330 223 451Q236 483 246 490T262 487T276 451L287 414L307 354Q346 227 378 147T451 4Q461 -12 478 -10T502 6T500
37Q432 136 365 371Q356 398 345 434T327 493T315 530L293 590Q281 616 293 645Q448 1060 539 1208Q549 1224 540 1238T516 1252T489 1237Q397 1089 279 772Q260 723 253 723T223 774Q183 863 150 947T100 1080T72 1167T59 1210Q48 1237 22 1228T2 1190L121 874L211
643Q223 616 211 590Z" />
<glyph unicode="y" glyph-name="y" horiz-adv-x="593" d="M307 676L385 903Q403 948 418 991Q458 1115 494 1169Q504 1185 496 1200T472 1215T444 1202Q402 1135 360 1008Q340 945 332 924Q299 835 291 809Q286 794 282 787T271 776T256 780T238 807Q225 829 199
885T162 963Q82 1120 41 1221Q34 1239 18 1240T-9 1230T-12 1200Q21 1110 109 936Q204 742 231 676Q240 655 231 633L51 35Q48 6 72 0Q98 -7 109 18L172 233L242 469Q249 493 307 676Z" />
<glyph unicode="z" glyph-name="z" horiz-adv-x="591" d="M469 1229H401Q317 1229 264 1231Q58 1231 37 1239Q26 1241 15 1235T2 1219Q0 1205 6 1194T25 1182Q69 1171 264 1171H401Q434 1171 434 1163Q434 1157 432 1153Q423 1109 360 963Q334 907 334 901Q306
840 164 438L63 158L31 66L29 61Q16 37 15 23T20 0Q24 -9 33 -14T51 -20T77 -23T104 -27Q304 -33 434 -12Q447 -11 454 -2T459 20Q458 32 448 39T426 45Q363 35 257 32T109 33Q109 33 99 35Q85 44 98 80L119 139L219 420L377 856L399 905Q401 909 403 914T408 927T414
940L457 1040Q483 1113 489 1137Q506 1196 485 1219Q481 1223 473 1227Q471 1229 469 1229Z" />
<glyph unicode="{" glyph-name="braceleft" horiz-adv-x="569" d="M197 432L160 387Q62 250 129 127Q170 53 221 25T375 -18Q387 -20 397 -13T408 6Q409 19 402 28T383 39Q293 53 253 75T182 156Q143 229 172 291Q184 317 242 395Q269 432 274 440Q314 495 303
541T233 594Q233 594 215 596Q199 603 240 629Q256 639 264 657T270 696Q268 712 250 737Q235 753 200 799T160 856Q90 984 195 1073Q242 1111 310 1134T444 1157Q457 1157 465 1165T473 1186Q473 1198 465 1206T444 1214Q368 1214 291 1190Q208 1164 150 1114T78
995Q63 929 85 875T170 745L201 702Q207 696 211 688L213 686Q210 680 195 668Q164 645 49 596Q35 590 23 584Q13 581 12 580T8 577T4 573Q-7 563 -4 545T16 520Q24 516 35 516Q61 516 106 526Q188 539 225 537Q228 535 232 531T241 517T242 498Q229 472 197 432Z"
/>
<glyph unicode="|" glyph-name="bar" horiz-adv-x="270" d="M131 1176Q130 1186 120 1193T98 1198Q86 1197 79 1187T74 1163Q81 1127 84 1022Q88 901 88 899Q117 467 117 37Q117 24 125 16T145 8Q158 8 166 16T174 37Q174 503 145 903Q145 1104 131 1176Z" />
<glyph unicode="}" glyph-name="braceright" horiz-adv-x="462" d="M135 715L129 702Q127 699 129 694T141 684T164 678H184Q215 678 240 680Q311 686 315 688Q350 691 365 672Q378 645 356 629L340 618L315 608Q229 574 190 553Q175 543 168 537T162 530L179
516Q196 503 211 492L266 449Q299 416 305 406Q324 374 324 337T309 261T266 184T204 107T132 37T55 -27Q40 -37 25 -29T7 -6T18 23Q96 79 157 142T249 270T256 377Q238 400 174 444L123 485Q121 487 115 493T106 503T99 511T94 522T92 532Q91 544 99 555T115 574T139
592Q158 602 164 606Q182 613 184 618Q92 623 66 668Q53 689 70 719Q70 720 73 724Q75 727 76 729Q78 733 84 742T94 760Q112 792 145 846Q256 1034 246 1098Q237 1138 178 1147Q64 1162 0 1130Q-26 1118 -38 1144T-25 1184Q32 1212 104 1214T235 1189T303 1110Q313
1057 285 988T195 815Q137 722 135 715ZM170 541L180 547Q178 545 170 541Z" />
<glyph unicode="~" glyph-name="asciitilde" horiz-adv-x="747" d="M-31 276Q-31 264 -23 256T-2 248T18 256T27 276Q27 299 43 342Q61 382 87 414T141 455Q167 464 187 452T215 416Q231 376 246 360Q292 306 348 292T458 299T559 364T647 467Q658 483 650 497T626
513T598 500Q551 431 498 391T391 348T291 397Q289 400 270 438Q253 476 229 494Q176 526 129 513T41 451Q9 414 -11 365T-31 276Z" />
</font>
</defs>
</svg>
